<svg width="462" height="380" viewBox="0 0 462 380" fill="none" xmlns="http://www.w3.org/2000/svg">
  <path d="M126.422 362.777C108.922 352.278 106.922 302.778 106.922 292.277C106.922 260.714 110.422 219.778 112.422 187.278C115.56 136.278 103.922 113.277 103.922 113.277C66.922 115.778 37.422 145.278 6.92199 121.277C-5.03106 111.871 0.397403 43.049 8.92198 31.2768C17.4466 19.5047 23.422 24.2767 54.922 31.2768C78.1678 36.4427 171.922 18.2767 192.422 11.7767C220.422 2.89866 268.646 -5.61246 275.422 4.77717C290.422 27.7777 282.217 79.5792 275.922 86.2768C252.422 111.278 191.422 104.277 191.422 104.277C191.422 104.277 207.88 140.484 211.422 165.278C217.422 207.278 216.422 271.777 216.422 271.777C216.422 271.777 204.922 227.278 202.922 212.278C202.184 206.745 199.821 186.516 196.422 165.778C192.448 141.533 185.922 115.778 185.922 115.778L183.922 121.778C183.922 121.778 189.893 154.227 193.922 187.278C199.157 230.226 197.821 260.779 209.922 300.278C223.708 345.278 250.922 374.278 250.922 374.278C250.922 374.278 219.922 363.278 202.422 310.778C195.922 291.278 191.384 271.777 187.922 248.278C183.922 215.778 179.422 160.777 179.422 160.777C179.422 160.777 176.36 191.875 180.422 230.278C185.922 282.278 184.114 361.017 175.422 367.778C152.922 385.278 129.984 364.914 126.422 362.777Z" fill="url(#paint0_linear_1312_240)"/>
  <path d="M231.922 197.278C237.845 231.676 244.422 285.778 244.422 285.778C244.422 285.778 261.799 237.572 274.422 207.278C294.422 159.278 312.922 137.778 312.922 137.778C312.922 137.778 303.732 182.778 278.422 230.278C250.922 283.278 247.422 304.278 242.422 322.278C234.922 304.778 225.922 252.278 222.922 219.278C218.255 167.94 205.922 118.278 205.922 118.278C205.922 118.278 218.922 121.778 231.922 197.278Z" fill="url(#paint1_linear_1312_240)"/>
  <path d="M248.422 355.778L225.922 310.778C225.922 310.778 225.922 346.778 252.422 367.778C256.922 347.778 253.942 342.9 271.922 296.778C283.422 267.278 298.966 227.757 302.922 207.278C289.922 222.778 270.854 261.004 255.422 296.778C244.422 322.278 248.422 355.778 248.422 355.778Z" fill="url(#paint2_linear_1312_240)"/>
  <path d="M314.422 170.778C322.565 107.778 316.422 99.2776 316.422 99.2776C316.422 99.2776 328.422 108.278 325.922 132.778C322.861 162.778 314.422 170.778 314.422 170.778Z" fill="url(#paint3_linear_1312_240)"/>
  <path d="M310.922 251.778C310.922 251.778 276.922 316.778 257.422 377.278C252.422 340.778 280.417 284.745 306.922 230.278C340.743 160.777 328.922 105.778 328.922 105.778C328.922 105.778 332.422 105.778 338.422 148.778C345.422 165.778 350.922 190.278 354.422 219.278C357.704 246.474 364.922 285.778 364.922 285.778C364.922 285.778 397.422 183.778 436.422 125.778C425.922 169.278 419.185 175.778 394.422 240.278C381.922 272.836 372.422 277.278 362.422 322.278C350.422 291.278 336.422 170.778 336.422 170.778C336.422 170.778 332.082 184.778 334.422 212.278C336.422 235.778 336.422 259.778 336.422 268.778C332.422 266.778 322.922 220.778 322.922 220.778C322.922 220.778 317.422 233.778 321.422 263.778C326.594 302.57 348.922 352.778 370.922 374.278C370.922 374.278 343.322 367.778 322.922 313.778C314.422 291.278 310.922 251.778 310.922 251.778Z" fill="url(#paint4_linear_1312_240)"/>
  <path d="M366.922 354.278L346.422 310.278C346.422 310.278 344.422 340.278 371.422 366.778C375.922 346.778 373.942 342.9 391.922 296.778C403.422 267.278 419.966 227.757 423.922 207.278C410.922 222.778 391.854 258.004 376.422 293.778C365.422 319.278 366.922 354.278 366.922 354.278Z" fill="url(#paint5_linear_1312_240)"/>
  <path d="M448.922 128.778C448.001 145.736 436.422 170.778 436.422 170.778C436.422 170.778 437.922 150.778 440.422 130.278C442.339 114.559 442.422 89.7776 442.422 89.7776C442.422 89.7776 450.659 96.7776 448.922 128.778Z" fill="url(#paint6_linear_1312_240)"/>
  <path d="M380.422 342.778C376.62 356.537 376.422 379.778 376.422 379.778C376.422 379.778 382.792 356.198 397.922 323.778C411.922 293.778 416.422 294.278 427.422 264.778C441.844 226.101 459.922 184.778 460.922 148.778C461.922 112.778 455.422 91.2776 455.422 91.2776C455.422 91.2776 455.43 123.921 452.922 144.278C448.277 181.978 434.922 216.278 425.422 236.778C415.922 257.278 390.922 304.778 380.422 342.778Z" fill="url(#paint7_linear_1312_240)"/>
  <defs>
    <linearGradient id="paint0_linear_1312_240" x1="-30.5" y1="-71" x2="472.5" y2="432" gradientUnits="userSpaceOnUse">
      <stop stop-color="#4804F8"/>
      <stop offset="1" stop-color="#1DEE0F"/>
    </linearGradient>
    <linearGradient id="paint1_linear_1312_240" x1="-30.5" y1="-71" x2="472.5" y2="432" gradientUnits="userSpaceOnUse">
      <stop stop-color="#4804F8"/>
      <stop offset="1" stop-color="#1DEE0F"/>
    </linearGradient>
    <linearGradient id="paint2_linear_1312_240" x1="-30.5" y1="-71" x2="472.5" y2="432" gradientUnits="userSpaceOnUse">
      <stop stop-color="#4804F8"/>
      <stop offset="1" stop-color="#1DEE0F"/>
    </linearGradient>
    <linearGradient id="paint3_linear_1312_240" x1="-30.5" y1="-71" x2="472.5" y2="432" gradientUnits="userSpaceOnUse">
      <stop stop-color="#4804F8"/>
      <stop offset="1" stop-color="#1DEE0F"/>
    </linearGradient>
    <linearGradient id="paint4_linear_1312_240" x1="-30.5" y1="-71" x2="472.5" y2="432" gradientUnits="userSpaceOnUse">
      <stop stop-color="#4804F8"/>
      <stop offset="1" stop-color="#1DEE0F"/>
    </linearGradient>
    <linearGradient id="paint5_linear_1312_240" x1="-30.5" y1="-71" x2="472.5" y2="432" gradientUnits="userSpaceOnUse">
      <stop stop-color="#4804F8"/>
      <stop offset="1" stop-color="#1DEE0F"/>
    </linearGradient>
    <linearGradient id="paint6_linear_1312_240" x1="-30.5" y1="-71" x2="472.5" y2="432" gradientUnits="userSpaceOnUse">
      <stop stop-color="#4804F8"/>
      <stop offset="1" stop-color="#1DEE0F"/>
    </linearGradient>
    <linearGradient id="paint7_linear_1312_240" x1="-30.5" y1="-71" x2="472.5" y2="432" gradientUnits="userSpaceOnUse">
      <stop stop-color="#4804F8"/>
      <stop offset="1" stop-color="#1DEE0F"/>
    </linearGradient>
  </defs>
</svg>
